<svg xmlns="http://www.w3.org/2000/svg" viewBox="0 0 32 32" width="32" height="32">
  <defs>
    <linearGradient id="flameGradient" x1="0%" y1="0%" x2="100%" y2="100%">
      <stop offset="0%" stop-color="#fbbf24"/>
      <stop offset="30%" stop-color="#f97316"/>
      <stop offset="70%" stop-color="#ef4444"/>
      <stop offset="100%" stop-color="#dc2626"/>
    </linearGradient>
  </defs>
  
  <!-- Main flame shape -->
  <path d="M16 3 C11 4, 6 8, 6 14 C6 18, 8 21, 11 22 C13 24, 14 25, 16 25 C18 25, 19 24, 21 22 C24 21, 26 18, 26 14 C26 11, 24 8, 22 6 C21 5, 19 4, 18 5 C19 6, 19 8, 18 9 C18 8, 16 7, 14 8 C15 9, 17 11, 16 13 C14 11, 13 9, 11 11 C12 13, 13 14, 13 16 C11 14, 10 13, 8 14 C9 16, 10 18, 9 19 C8 18, 7 16, 6 14 Z" 
        fill="url(#flameGradient)"/>
  
  <!-- Analytics bars inside flame -->
  <g fill="white">
    <!-- Base line -->
    <rect x="8" y="22" width="16" height="1" rx="0.5"/>
    
    <!-- Bar 1 (shortest) -->
    <rect x="10" y="18" width="2" height="4" rx="1"/>
    
    <!-- Bar 2 (medium) -->
    <rect x="13" y="15" width="2" height="7" rx="1"/>
    
    <!-- Bar 3 (tallest) -->
    <rect x="16" y="12" width="2" height="10" rx="1"/>
    
    <!-- Bar 4 (medium-tall) -->
    <rect x="19" y="13" width="2" height="9" rx="1"/>
  </g>
</svg>