<?xml version="1.0" standalone="no"?>
<!DOCTYPE svg PUBLIC "-//W3C//DTD SVG 20010904//EN"
 "http://www.w3.org/TR/2001/REC-SVG-20010904/DTD/svg10.dtd">
<svg version="1.0" xmlns="http://www.w3.org/2000/svg"
 width="1024.000000pt" height="1536.000000pt" viewBox="0 0 1024.000000 1536.000000"
 preserveAspectRatio="xMidYMid meet">

<defs>
  <linearGradient id="flameGradient" x1="0%" y1="0%" x2="100%" y2="100%">
    <stop offset="0%" stop-color="#f97316"/>
    <stop offset="50%" stop-color="#fb923c"/>
    <stop offset="100%" stop-color="#ef4444"/>
  </linearGradient>
</defs>

<g transform="translate(0.000000,1536.000000) scale(0.100000,-0.100000)"
fill="url(#flameGradient)" stroke="none">
<path d="M4855 11302 c122 -251 125 -563 9 -834 -35 -83 -101 -202 -141 -254
-25 -33 -30 -49 -12 -38 8 5 8 1 0 -14 -6 -12 -17 -24 -24 -28 -8 -5 -7 -2 2
9 8 10 12 20 9 23 -5 5 -58 -60 -58 -72 0 -3 8 0 18 7 15 13 16 12 3 -4 -8 -9
-16 -15 -19 -12 -7 7 -72 -55 -72 -69 0 -5 14 3 32 20 l32 29 -25 -32 c-13
-18 -29 -30 -35 -28 -12 4 -104 -84 -104 -100 0 -5 15 4 33 21 l32 29 -34 -37
c-19 -21 -38 -35 -42 -32 -8 5 -23 -14 -24 -31 -1 -5 -6 -9 -12 -8 -6 1 -62
-48 -124 -109 -63 -61 -103 -102 -89 -92 22 16 21 15 -4 -14 -30 -32 -50 -45
-26 -17 8 10 9 15 2 15 -16 0 -483 -469 -585 -587 -54 -62 -86 -107 -81 -114
4 -7 3 -9 -3 -6 -15 9 -55 -38 -171 -204 -347 -498 -502 -978 -502 -1551 1
-594 172 -1109 520 -1568 235 -308 547 -557 920 -733 171 -81 363 -147 528
-182 69 -14 297 -45 334 -45 17 0 18 53 18 1120 0 1107 0 1120 -20 1140 -19
19 -33 20 -328 20 -250 0 -312 -3 -328 -14 -19 -14 -19 -38 -24 -953 l-5 -938
-64 60 c-265 249 -461 595 -537 945 -26 119 -27 449 -2 566 98 449 414 829
928 1113 105 58 312 160 610 301 340 160 491 245 675 380 97 72 255 216 255
233 0 5 -10 2 -22 -9 l-23 -19 19 22 c10 13 22 20 27 17 13 -8 95 103 139 188
77 148 100 329 64 506 -14 71 -94 262 -109 262 -4 0 -4 -7 -1 -16 3 -9 2 -12
-5 -9 -5 4 -7 14 -4 24 3 10 -7 31 -25 51 l-29 35 -1 -55 c-1 -86 -34 -229
-74 -314 -67 -146 -214 -311 -332 -373 -29 -15 -51 -30 -49 -33 2 -3 -7 -6
-18 -7 -168 -15 -171 -15 -205 7 -48 30 -65 79 -59 170 5 77 23 143 96 354 73
210 85 289 86 546 0 254 -14 347 -82 530 -40 109 -110 243 -123 235 -5 -3 -12
0 -16 6 -4 8 -3 9 4 5 7 -4 12 -3 12 1 0 12 -29 50 -30 39 0 -5 -9 -1 -20 9
-11 10 -20 23 -20 29 0 6 9 0 20 -14 24 -30 26 -19 4 15 -9 14 -20 23 -24 20
-4 -3 -14 3 -21 13 -13 15 -12 16 4 3 28 -22 19 1 -16 39 -17 20 -29 31 -24
26 10 -15 9 -36 -4 -36 -5 0 -7 5 -4 11 4 6 -4 22 -16 37 -13 14 -16 20 -6 13
9 -7 17 -9 17 -4 0 16 -96 104 -105 96 -4 -5 -5 -3 -2 3 9 15 -78 95 -95 89
-8 -3 -23 4 -34 16 l-19 22 30 -19 c27 -17 29 -17 16 -1 -19 24 -162 118 -238
156 -60 30 -161 71 -175 71 -3 0 9 -31 27 -68z m100 8 c50 -24 56 -29 33 -29
-16 -1 -28 3 -28 8 0 5 -18 16 -40 25 -22 9 -40 18 -40 21 0 9 13 4 75 -25z
m-77 -15 c-3 -3 -9 2 -12 12 -6 14 -5 15 5 6 7 -7 10 -15 7 -18z m40 -100 c0
-5 -6 4 -13 20 -8 17 -14 37 -14 45 0 8 7 -1 14 -20 7 -19 13 -39 13 -45z
m158 49 c18 -14 18 -14 -6 -3 -31 14 -36 19 -24 19 6 0 19 -7 30 -16z m70 -45
c3 -6 -5 -3 -20 6 -14 10 -26 19 -26 22 0 7 39 -17 46 -28z m35 -26 c13 -16
12 -17 -3 -4 -17 13 -22 21 -14 21 2 0 10 -8 17 -17z m-227 -98 c7 -48 -8 -19
-18 35 -5 23 -4 30 2 20 5 -8 12 -33 16 -55z m376 -26 c0 -3 -6 -6 -14 -6 -8
0 -14 5 -13 11 1 6 -3 10 -9 9 -6 -1 -11 4 -11 12 0 10 5 10 23 -3 13 -9 24
-20 24 -23z m69 -65 c10 -9 9 -13 -4 -18 -9 -3 -14 -2 -11 3 3 5 -1 14 -9 21
-8 7 -15 18 -15 24 1 6 6 5 13 -4 7 -8 19 -20 26 -26z m231 -338 c0 -5 -7 -1
-15 10 -8 10 -14 24 -14 29 0 6 6 1 14 -9 8 -11 15 -24 15 -30z m40 -81 c0 -5
-5 -3 -10 5 -5 8 -10 20 -10 25 0 6 5 3 10 -5 5 -8 10 -19 10 -25z m39 -99
c-1 -15 -28 46 -28 64 0 8 6 0 14 -19 8 -18 15 -38 14 -45z m38 -138 c-3 -7
-5 -2 -5 12 0 14 2 19 5 13 2 -7 2 -19 0 -25z m-967 -68 c-6 -11 -13 -20 -16
-20 -2 0 0 9 6 20 6 11 13 20 16 20 2 0 0 -9 -6 -20z m998 -70 l0 -25 -8 25
c-4 14 -8 36 -8 50 l0 25 8 -25 c4 -14 8 -36 8 -50z m9 -102 c-3 -8 -6 -5 -6
6 -1 11 2 17 5 13 3 -3 4 -12 1 -19z m0 -40 c-3 -8 -6 -5 -6 6 -1 11 2 17 5
13 3 -3 4 -12 1 -19z m-1497 -342 c0 -2 -8 -10 -17 -17 -16 -13 -17 -12 -4 4
13 16 21 21 21 13z m2210 -331 c0 -5 -5 -3 -10 5 -5 8 -10 20 -10 25 0 6 5 3
10 -5 5 -8 10 -19 10 -25z m7 -47 c-3 -8 -6 -5 -6 6 -1 11 2 17 5 13 3 -3 4
-12 1 -19z m10 -40 c-3 -8 -6 -5 -6 6 -1 11 2 17 5 13 3 -3 4 -12 1 -19z"/>
<path d="M6517 8332 c-61 -7 -57 110 -55 -1720 l3 -1672 80 51 c99 63 226 161
324 248 81 73 244 249 272 296 18 29 19 85 19 1396 0 1288 -1 1367 -17 1382
-15 13 -61 16 -308 19 -159 2 -302 2 -318 0z"/>
<path d="M5482 7608 c-9 -9 -12 -355 -12 -1494 l0 -1482 43 5 c100 11 248 35
327 54 89 20 285 83 309 98 12 8 14 214 12 1407 -2 963 -6 1403 -13 1411 -15
18 -648 19 -666 1z"/>
</g>
</svg>