<svg xmlns="http://www.w3.org/2000/svg" viewBox="0 0 100 100" width="100" height="100">
  <defs>
    <linearGradient id="flameGradient" x1="0%" y1="0%" x2="100%" y2="100%">
      <stop offset="0%" stop-color="#f97316"/>
      <stop offset="100%" stop-color="#ef4444"/>
    </linearGradient>
  </defs>
  
  <!-- Main torch flame -->
  <path d="M50 10 C35 15, 25 25, 25 40 C25 50, 30 60, 40 65 C45 50, 55 50, 60 65 C70 60, 75 50, 75 40 C75 25, 65 15, 50 10 Z" 
        fill="url(#flameGradient)" 
        opacity="0.9"/>
  
  <!-- Inner flame detail -->
  <path d="M50 15 C40 20, 35 30, 35 42 C35 50, 38 55, 45 58 C48 45, 52 45, 55 58 C62 55, 65 50, 65 42 C65 30, 60 20, 50 15 Z" 
        fill="url(#flameGradient)" 
        opacity="0.7"/>
  
  <!-- Torch handle -->
  <rect x="47" y="65" width="6" height="25" 
        fill="#374151" 
        rx="3"/>
  
  <!-- Handle grip lines -->
  <line x1="45" y1="70" x2="55" y2="70" stroke="#6b7280" stroke-width="0.5"/>
  <line x1="45" y1="75" x2="55" y2="75" stroke="#6b7280" stroke-width="0.5"/>
  <line x1="45" y1="80" x2="55" y2="80" stroke="#6b7280" stroke-width="0.5"/>
  <line x1="45" y1="85" x2="55" y2="85" stroke="#6b7280" stroke-width="0.5"/>
</svg>