<?xml version="1.0" standalone="no"?>
<!DOCTYPE svg PUBLIC "-//W3C//DTD SVG 20010904//EN"
 "http://www.w3.org/TR/2001/REC-SVG-20010904/DTD/svg10.dtd">
<svg version="1.0" xmlns="http://www.w3.org/2000/svg"
 width="1024.000000pt" height="1536.000000pt" viewBox="0 0 1024.000000 1536.000000"
 preserveAspectRatio="xMidYMid meet">

<defs>
  <linearGradient id="logoGradient" x1="0%" y1="0%" x2="100%" y2="100%" gradientUnits="objectBoundingBox">
    <stop offset="0%" stop-color="#f97316"/>
    <stop offset="50%" stop-color="#fb923c"/>
    <stop offset="100%" stop-color="#ef4444"/>
  </linearGradient>
</defs>
<g transform="translate(0.000000,1536.000000) scale(0.100000,-0.100000)"
fill="#f97316" stroke="none">
<path d="M6132 10190 c0 -19 2 -27 5 -17 2 9 2 25 0 35 -3 9 -5 1 -5 -18z"/>
<path d="M6142 10034 l-2 -91 -30 5 c-25 4 -30 9 -30 32 0 23 -4 27 -20 23
-11 -3 -17 -9 -14 -14 3 -5 0 -9 -5 -9 -6 0 -11 5 -11 10 0 6 -9 10 -19 10
-15 0 -19 -6 -16 -20 5 -28 -5 -51 -19 -43 -6 4 -17 8 -25 10 -11 1 -11 -1 1
-13 8 -8 33 -16 55 -17 34 -1 38 -3 27 -15 -8 -7 -14 -17 -14 -22 0 -4 -14 -7
-31 -6 -28 2 -29 1 -13 -11 16 -12 16 -13 1 -13 -10 0 -25 -9 -34 -20 -10 -11
-23 -20 -30 -20 -7 0 -13 -5 -13 -11 0 -5 4 -7 10 -4 5 3 7 0 4 -8 -3 -8 -15
-13 -27 -12 -33 2 -39 -4 -22 -22 9 -9 14 -21 11 -29 -3 -7 0 -15 7 -18 7 -3
1 -3 -13 0 l-25 5 22 -18 23 -18 -33 -1 c-17 -1 -35 4 -39 10 -5 7 -8 5 -8 -6
0 -29 1 -33 11 -30 18 4 -16 -38 -35 -44 -15 -5 -16 -8 -5 -15 8 -5 9 -9 4 -9
-6 0 -16 5 -23 12 -9 9 -11 6 -7 -13 4 -23 4 -23 -10 -5 -14 18 -15 18 -15 2
0 -12 -5 -16 -15 -12 -8 3 -15 1 -15 -5 0 -6 -4 -7 -10 -4 -16 10 -11 -1 7
-16 9 -8 14 -9 10 -3 -3 6 0 11 7 11 8 0 12 -10 10 -25 -3 -28 -14 -43 -14
-19 0 11 -8 17 -22 16 -17 -1 -19 -2 -5 -6 22 -6 22 -20 -1 -32 -13 -7 -23 -6
-32 2 -7 7 -4 -1 9 -17 14 -19 18 -32 11 -36 -6 -4 -10 -11 -9 -16 3 -20 -2
-44 -10 -44 -4 0 -8 13 -7 30 1 16 4 30 9 30 4 0 7 5 7 11 0 8 -4 8 -14 0 -8
-7 -13 -21 -11 -31 4 -20 -25 -60 -44 -60 -6 0 -10 -6 -8 -12 1 -7 -6 -12 -15
-12 -10 1 -16 -2 -13 -6 3 -5 0 -12 -6 -15 -7 -5 -3 -15 11 -30 18 -19 19 -24
6 -34 -8 -7 -21 -9 -27 -5 -9 5 -10 0 -6 -17 6 -23 5 -23 -8 -5 -17 23 -10 39
15 31 20 -6 36 10 20 20 -5 3 -10 2 -10 -4 0 -6 -7 -8 -16 -4 -13 5 -13 7 -2
14 10 7 8 9 -6 9 -12 0 -16 -5 -13 -15 4 -8 2 -17 -3 -20 -6 -4 -6 -14 1 -28
9 -16 9 -22 0 -25 -6 -2 -11 -8 -11 -13 0 -6 5 -7 10 -4 7 4 9 -3 5 -22 -5
-21 -4 -24 4 -13 6 8 11 10 11 4 0 -20 -27 -37 -36 -23 -5 8 -3 9 6 4 8 -5 11
-4 7 3 -4 5 -17 8 -29 4 -16 -4 -18 -7 -8 -10 8 -3 18 -10 22 -16 11 -16 -2
-28 -17 -16 -11 9 -12 7 -8 -9 3 -13 10 -18 21 -14 9 4 13 2 9 -4 -4 -6 -16
-13 -27 -16 -18 -4 -20 -2 -14 16 12 39 -4 13 -19 -30 -9 -26 -11 -43 -4 -46
5 -1 2 -11 -7 -20 -14 -14 -15 -17 -3 -17 8 0 17 -7 21 -15 7 -19 -3 -47 -14
-40 -5 3 -11 1 -15 -5 -6 -9 7 -14 30 -11 6 1 3 -4 -6 -11 -11 -9 -14 -21 -8
-40 4 -15 4 -27 1 -26 -24 3 -74 -3 -69 -8 3 -4 1 -16 -5 -27 -11 -21 -11 -21
16 -4 28 18 33 12 13 -14 -7 -9 -19 -14 -27 -12 -10 3 -11 2 -4 -4 22 -17 23
-53 1 -68 -11 -8 -24 -12 -28 -9 -4 2 -10 0 -14 -6 -6 -10 7 -14 33 -11 9 1
11 -10 8 -41 -2 -24 -5 -45 -5 -47 -1 -2 -7 2 -15 8 -11 9 -19 7 -39 -12 -21
-19 -25 -31 -22 -62 2 -21 0 -34 -3 -29 -11 15 -42 16 -42 2 0 -9 -3 -9 -10 2
-6 9 -10 10 -10 3 0 -7 7 -16 16 -21 11 -6 14 -16 9 -31 -7 -24 -22 -28 -22
-6 0 8 4 12 9 9 4 -3 8 0 8 5 0 6 -7 11 -16 11 -13 0 -14 -9 -10 -50 4 -36 2
-50 -7 -51 -6 0 -3 -4 8 -9 11 -5 14 -9 7 -9 -9 -1 -11 -8 -7 -23 6 -16 4 -20
-9 -15 -8 3 -18 1 -22 -5 -4 -7 -3 -8 4 -4 18 11 15 -19 -3 -34 -8 -7 -13 -16
-10 -20 3 -5 -1 -10 -7 -13 -10 -3 -9 -9 3 -23 13 -15 15 -25 7 -44 -6 -15
-12 -20 -15 -12 -3 7 0 19 6 26 14 16 4 26 -17 19 -15 -4 -15 -3 -2 6 10 7 11
11 3 11 -7 0 -13 7 -13 15 0 8 4 15 8 15 5 0 9 7 9 15 0 17 -32 21 -42 5 -3
-5 0 -7 9 -4 11 4 13 -2 11 -31 -2 -24 1 -38 10 -41 8 -3 11 -12 8 -20 -3 -8
-10 -11 -16 -7 -6 4 -8 0 -4 -10 4 -10 10 -25 13 -34 5 -15 4 -16 -6 -3 -9 13
-11 12 -8 -5 3 -12 -4 -25 -17 -33 -13 -9 -14 -12 -3 -8 12 3 16 -1 15 -15 -1
-14 -7 -19 -19 -16 -9 3 -22 -1 -29 -9 -6 -8 -8 -14 -3 -14 5 0 0 -8 -11 -17
-16 -13 -17 -15 -2 -10 11 4 17 1 17 -9 0 -8 -4 -13 -9 -9 -5 3 -13 0 -17 -6
-4 -7 -3 -9 4 -5 6 3 13 2 17 -4 3 -5 0 -10 -7 -10 -7 0 -4 -6 7 -12 11 -6 24
-17 28 -25 5 -7 13 -10 19 -7 7 5 8 2 4 -5 -6 -9 -12 -8 -26 4 -15 14 -18 14
-30 0 -7 -8 -16 -12 -21 -9 -5 3 -6 -2 -2 -11 3 -10 0 -21 -8 -26 -8 -5 -9 -9
-3 -9 6 0 12 -11 12 -25 0 -14 -5 -25 -10 -25 -5 0 -6 5 -3 10 3 6 -1 10 -9
10 -15 0 -19 -10 -13 -27 1 -5 5 -7 9 -6 4 2 6 -11 6 -27 -1 -27 -2 -28 -14
-12 -12 15 -12 15 -7 -5 3 -16 1 -23 -8 -23 -10 -1 -8 -4 4 -11 9 -5 17 -15
17 -22 0 -7 -4 -6 -10 3 -5 8 -10 11 -10 6 0 -5 -6 -3 -13 3 -10 8 -14 7 -14
-4 0 -8 4 -12 9 -9 4 3 8 0 8 -5 0 -6 -6 -11 -12 -11 -10 0 -9 -3 1 -9 11 -7
9 -12 -10 -22 -13 -7 -30 -12 -38 -10 -10 2 -10 -2 3 -14 21 -21 21 -49 0 -41
-8 3 -12 2 -9 -4 3 -6 12 -10 20 -10 8 0 11 -7 8 -21 -4 -12 0 -25 8 -31 10
-6 7 -7 -10 -3 -18 5 -22 4 -16 -6 6 -9 3 -10 -10 -5 -10 4 -21 2 -25 -4 -10
-15 -40 -1 -33 16 3 8 10 11 16 7 6 -4 7 -1 2 7 -6 10 -11 10 -20 -4 -8 -10
-20 -14 -31 -11 -41 13 56 -36 126 -64 109 -43 213 -68 394 -97 239 -37 314
-71 421 -185 109 -118 254 -416 290 -596 21 -106 25 12 25 749 0 778 0 794 20
826 37 60 49 62 462 62 352 0 375 -1 405 -20 69 -42 64 93 63 -1698 l0 -1617
55 55 c173 170 380 423 487 596 303 491 430 971 415 1569 -4 127 -13 282 -22
345 -68 508 -207 965 -430 1412 -190 381 -380 668 -621 937 l-89 100 -6 -147
c-10 -231 -58 -387 -166 -533 -165 -224 -462 -305 -534 -146 -26 59 -25 185 6
487 20 192 25 288 22 436 -1 104 -3 148 -5 98z m-115 -100 c-3 -3 -12 -4 -19
-1 -8 3 -5 6 6 6 11 1 17 -2 13 -5z m83 -6 c0 -4 -6 -8 -12 -8 -9 0 -8 -4 2
-10 11 -7 11 -10 2 -10 -7 0 -10 -5 -6 -12 4 -7 3 -8 -4 -4 -18 11 -15 53 3
53 8 0 15 -4 15 -9z m30 -44 c0 -19 -4 -34 -10 -34 -10 0 -12 10 -12 50 0 29
1 32 12 25 6 -3 10 -22 10 -41z m-40 -58 c0 -3 -4 -8 -10 -11 -5 -3 -10 -1
-10 4 0 6 5 11 10 11 6 0 10 -2 10 -4z m-173 -87 c-14 -10 -40 -4 -45 9 -2 7
5 9 17 7 14 -3 21 1 22 13 0 14 2 13 8 -3 5 -12 4 -23 -2 -26z m210 -11 c-3
-7 -5 -2 -5 12 0 14 2 19 5 13 2 -7 2 -19 0 -25z m-206 -46 c-7 -2 -18 1 -23
6 -8 8 -4 9 13 5 13 -4 18 -8 10 -11z m-181 -188 c0 -8 -5 -12 -10 -9 -6 4 -8
11 -5 16 9 14 15 11 15 -7z m-45 -34 c-1 -11 -5 -23 -10 -27 -4 -5 -5 -3 -1 4
3 6 2 14 -4 18 -6 4 -8 11 -5 16 10 16 22 10 20 -11z m-45 -116 c0 -2 -7 -4
-15 -4 -8 0 -15 4 -15 10 0 5 7 7 15 4 8 -4 15 -8 15 -10z m-35 -14 c3 -5 1
-10 -4 -10 -6 0 -11 5 -11 10 0 6 2 10 4 10 3 0 8 -4 11 -10z m-25 -19 c0 -5
-7 -11 -14 -14 -10 -4 -13 -1 -9 9 6 15 23 19 23 5z m-50 -216 c0 -2 -6 -8
-13 -14 -10 -8 -14 -7 -14 2 0 8 6 14 14 14 7 0 13 -1 13 -2z m-232 -563 c-10
-2 -18 -8 -18 -14 0 -6 -3 -8 -6 -5 -11 10 17 38 30 30 7 -5 5 -9 -6 -11z
m-81 -187 c0 -8 -4 -12 -9 -9 -5 3 -6 10 -3 15 9 13 12 11 12 -6z m-47 -165
c0 -5 -2 -10 -4 -10 -3 0 -8 5 -11 10 -3 6 -1 10 4 10 6 0 11 -4 11 -10z m-93
-214 c-3 -8 -1 -17 6 -19 7 -2 10 -7 7 -10 -11 -12 -31 10 -24 26 3 9 8 17 11
17 3 0 3 -6 0 -14z m38 4 c3 -6 -1 -7 -9 -4 -18 7 -21 14 -7 14 6 0 13 -4 16
-10z m-135 -374 c0 -3 -4 -8 -10 -11 -5 -3 -10 -1 -10 4 0 6 5 11 10 11 6 0
10 -2 10 -4z m-36 -15 c3 -5 -1 -11 -9 -14 -9 -4 -12 -1 -8 9 6 16 10 17 17 5z
m13 -37 c-3 -3 -12 -4 -19 -1 -8 3 -5 6 6 6 11 1 17 -2 13 -5z m-11 -107 c3
-3 13 -3 22 1 16 5 16 4 0 -11 -18 -18 -29 -22 -27 -9 3 19 -2 23 -16 12 -15
-12 -45 -8 -45 7 0 9 57 9 66 0z"/>
<path d="M5965 9990 c3 -5 8 -10 11 -10 2 0 4 5 4 10 0 6 -5 10 -11 10 -5 0
-7 -4 -4 -10z"/>
<path d="M5900 9932 c0 -5 7 -9 15 -9 8 0 12 4 9 9 -3 4 -9 8 -15 8 -5 0 -9
-4 -9 -8z"/>
<path d="M5985 9899 c-4 -6 -5 -12 -2 -15 2 -3 7 2 10 11 7 17 1 20 -8 4z"/>
<path d="M5824 9733 c4 -7 -2 -13 -16 -15 -22 -3 -22 -3 3 -14 22 -11 25 -10
24 7 -1 10 -5 22 -10 26 -4 5 -5 3 -1 -4z"/>
<path d="M5780 9624 c0 -14 3 -14 15 -4 8 7 15 14 15 16 0 2 -7 4 -15 4 -8 0
-15 -7 -15 -16z"/>
<path d="M5475 9170 c-3 -5 -1 -10 4 -10 6 0 11 5 11 10 0 6 -2 10 -4 10 -3 0
-8 -4 -11 -10z"/>
<path d="M5386 8928 c3 -4 9 -6 14 -3 4 3 11 -1 13 -7 4 -10 6 -10 6 0 1 8 6
10 14 6 6 -4 8 -3 4 2 -10 11 -58 14 -51 2z"/>
<path d="M5403 8828 c-2 -16 1 -18 10 -9 7 7 8 14 1 21 -6 6 -10 2 -11 -12z"/>
<path d="M5335 8612 c-15 -10 -16 -29 -2 -29 7 0 13 9 13 19 0 10 0 18 -1 18
0 0 -4 -4 -10 -8z"/>
<path d="M5170 8300 c0 -5 5 -10 10 -10 6 0 10 5 10 10 0 6 -4 10 -10 10 -5 0
-10 -4 -10 -10z"/>
<path d="M6310 6088 l0 -1838 -315 0 -315 0 0 1268 c0 1253 0 1267 -20 1300
-37 60 -54 63 -423 61 -236 -2 -320 -5 -292 -12 22 -5 55 -9 73 -9 20 0 32 -5
32 -13 0 -7 6 -16 13 -18 7 -3 4 -6 -7 -6 -12 -1 -16 -6 -12 -16 4 -13 2 -14
-14 -5 -14 7 -20 7 -20 0 0 -5 5 -10 11 -10 5 0 7 -4 4 -10 -3 -6 1 -7 9 -4 9
3 16 1 16 -5 0 -6 -8 -11 -18 -11 -10 0 -27 -7 -38 -16 -18 -15 -18 -15 3 -5
15 8 24 8 28 1 4 -6 3 -9 -2 -8 -4 2 -8 -1 -8 -7 0 -5 5 -9 12 -7 23 5 22 -15
-2 -28 -28 -15 -34 -50 -8 -50 9 0 13 -3 10 -7 -4 -3 -1 -13 6 -21 10 -13 9
-15 -7 -9 -16 6 -17 5 -6 -8 10 -12 10 -15 0 -15 -7 0 -10 -8 -7 -20 4 -14 0
-20 -11 -20 -15 0 -15 -2 -2 -10 12 -7 8 -10 -15 -11 -16 0 -24 -3 -17 -6 6
-2 10 -9 6 -14 -3 -5 2 -9 10 -9 9 0 16 -5 16 -11 0 -5 4 -8 9 -5 5 4 8 -1 7
-9 -3 -18 -16 -32 -16 -17 0 7 -4 12 -10 12 -5 0 -7 -7 -4 -15 4 -11 2 -13 -9
-9 -8 3 -18 1 -22 -5 -4 -7 0 -8 10 -5 11 5 16 2 14 -7 -1 -8 2 -22 6 -33 6
-13 3 -21 -9 -28 -14 -8 -15 -12 -4 -25 11 -14 10 -16 -17 -10 -27 6 -28 5 -7
-5 12 -6 22 -16 22 -22 0 -6 5 -4 11 4 9 13 10 13 6 0 -2 -8 -10 -16 -18 -16
-8 -1 -23 -3 -34 -4 l-20 -1 20 -8 c19 -8 19 -8 -3 -15 -22 -7 -22 -8 -5 -22
17 -12 16 -13 -7 -14 -23 -1 -23 -2 -5 -10 11 -5 14 -9 7 -9 -7 -1 -10 -6 -6
-12 3 -6 0 -15 -7 -20 -11 -7 -10 -9 4 -9 10 0 15 -4 12 -10 -3 -5 -1 -19 6
-31 8 -15 8 -19 0 -15 -6 4 -11 1 -11 -6 0 -11 -2 -10 -9 0 -7 11 -9 11 -14
-2 -5 -11 -1 -16 13 -16 25 0 26 -16 3 -29 -12 -7 -13 -11 -5 -11 10 0 9 -4
-3 -16 -9 -10 -14 -25 -12 -35 3 -11 1 -19 -5 -19 -5 0 -8 -6 -5 -12 2 -7 10
-12 16 -10 7 1 10 -2 6 -8 -3 -6 -10 -8 -15 -5 -10 6 -19 -16 -13 -32 3 -7 9
-13 15 -13 6 0 6 6 -2 15 -10 12 -10 15 4 15 11 0 15 -8 14 -24 -1 -14 -6 -22
-11 -19 -4 3 -11 -4 -14 -16 -5 -21 -23 -30 -23 -11 0 6 -4 10 -10 10 -5 0 -7
-7 -3 -16 4 -11 -1 -22 -12 -30 -17 -13 -17 -14 -1 -14 9 0 14 -5 11 -10 -4
-6 -10 -8 -15 -5 -4 3 -6 -4 -3 -15 3 -11 0 -20 -6 -20 -6 0 -11 17 -12 38 0
20 -4 57 -9 82 -6 37 -7 31 -4 -32 1 -43 5 -82 9 -87 3 -5 1 -12 -5 -16 -7 -4
-10 -256 -10 -746 l0 -739 -155 0 -155 0 -2 698 -3 697 -2 -546 c-3 -474 -5
-548 -18 -559 -13 -11 -14 -10 -9 6 8 20 6 19 -14 -8 -10 -12 -10 -18 -1 -24
8 -5 10 -3 4 7 -6 11 -5 12 5 2 10 -10 11 -15 1 -27 -10 -12 -9 -15 6 -19 17
-4 17 -5 1 -6 -10 0 -18 -9 -18 -18 0 -15 -2 -14 -14 2 -12 17 -12 21 3 31 9
7 12 16 8 20 -4 5 -12 2 -17 -6 -8 -12 -10 -10 -10 9 0 16 -4 21 -15 17 -8 -3
-19 2 -24 12 -5 9 -13 13 -17 9 -5 -5 -3 -11 3 -15 9 -6 9 -14 -2 -35 -14 -27
-13 -28 5 -22 25 8 48 -4 29 -16 -8 -5 -17 -3 -21 4 -5 7 -8 2 -9 -13 0 -23
-1 -23 -9 -5 -6 13 -9 15 -9 5 -1 -19 -39 -44 -67 -45 -12 0 -29 -6 -37 -13
-10 -9 -17 -9 -22 -3 -9 16 -54 10 -48 -6 6 -16 15 -16 32 0 11 10 13 9 7 -6
-3 -10 -6 -21 -6 -24 0 -3 -11 2 -24 11 -28 18 -40 4 -24 -28 7 -13 7 -16 -1
-12 -6 4 -11 2 -11 -5 0 -8 -5 -7 -17 2 -13 11 -17 11 -20 1 -3 -6 -9 -10 -14
-6 -5 3 -12 -3 -16 -13 -9 -23 -22 -32 -53 -35 -14 -1 13 -5 60 -8 121 -9 -81
-12 -945 -14 l-700 -1 -31 -22 c-89 -64 -89 -222 0 -286 l31 -22 2665 -3
c1840 -2 2676 0 2701 8 52 15 106 77 114 132 8 50 -11 107 -48 147 -47 51 -52
51 -567 51 l-480 0 0 1835 0 1834 -250 3 -250 3 0 -1837z m-1297 297 c4 -8 3
-16 -1 -19 -4 -3 -9 4 -9 15 -2 23 3 25 10 4z m-55 -194 c-7 -11 -16 -18 -20
-15 -4 3 -2 11 5 19 18 21 29 18 15 -4z m-28 -175 c0 -3 -4 -8 -10 -11 -5 -3
-10 -1 -10 4 0 6 5 11 10 11 6 0 10 -2 10 -4z"/>
<path d="M5007 7843 c-4 -3 -7 -11 -7 -17 0 -6 5 -5 12 2 6 6 9 14 7 17 -3 3
-9 2 -12 -2z"/>
<path d="M4695 7534 c11 -8 29 -20 40 -26 l20 -10 -20 19 c-11 10 -29 22 -40
26 l-20 7 20 -16z"/>
<path d="M4983 6565 c0 -8 4 -15 9 -15 4 0 8 4 8 9 0 6 -4 12 -8 15 -5 3 -9
-1 -9 -9z"/>
<path d="M4960 6545 c0 -8 4 -15 10 -15 5 0 7 7 4 15 -4 8 -8 15 -10 15 -2 0
-4 -7 -4 -15z"/>
<path d="M4950 6403 c0 -6 8 -17 18 -24 16 -13 16 -13 2 6 -8 11 -16 22 -17
24 -2 2 -3 0 -3 -6z"/>
<path d="M3191 6014 c0 -11 3 -14 6 -6 3 7 2 16 -1 19 -3 4 -6 -2 -5 -13z"/>
<path d="M4875 6019 c-4 -6 -5 -12 -2 -15 2 -3 7 2 10 11 7 17 1 20 -8 4z"/>
<path d="M4472 5835 c0 -16 2 -22 5 -12 2 9 2 23 0 30 -3 6 -5 -1 -5 -18z"/>
<path d="M4473 5735 c0 -38 2 -53 4 -32 2 20 2 52 0 70 -2 17 -4 1 -4 -38z"/>
<path d="M3251 5174 c0 -11 3 -14 6 -6 3 7 2 16 -1 19 -3 4 -6 -2 -5 -13z"/>
<path d="M3261 5124 c0 -11 3 -14 6 -6 3 7 2 16 -1 19 -3 4 -6 -2 -5 -13z"/>
<path d="M3271 5084 c0 -11 3 -14 6 -6 3 7 2 16 -1 19 -3 4 -6 -2 -5 -13z"/>
<path d="M3075 4933 c65 -67 121 -120 123 -118 3 2 -15 23 -39 46 -164 157
-188 178 -84 72z"/>
<path d="M3321 4874 c0 -11 3 -14 6 -6 3 7 2 16 -1 19 -3 4 -6 -2 -5 -13z"/>
<path d="M3218 4805 c6 -11 25 -33 44 -50 l33 -30 -35 40 c-19 22 -39 45 -44
50 -5 6 -4 1 2 -10z"/>
<path d="M3341 4794 c0 -11 3 -14 6 -6 3 7 2 16 -1 19 -3 4 -6 -2 -5 -13z"/>
<path d="M3326 4711 c-3 -5 2 -15 12 -22 16 -13 16 -13 2 5 -14 18 -13 19 3
13 11 -4 16 -3 12 3 -8 12 -22 13 -29 1z"/>
<path d="M4303 4513 c4 -6 -3 -14 -16 -18 l-22 -8 23 -4 c29 -6 28 -26 -3 -43
-28 -15 -32 -27 -10 -27 8 0 15 7 15 14 0 8 4 12 9 8 6 -3 15 3 21 14 6 12 6
22 0 26 -5 3 -7 12 -4 19 3 8 0 17 -7 22 -7 4 -10 3 -6 -3z"/>
</g>
</svg>