<svg xmlns="http://www.w3.org/2000/svg" viewBox="0 0 100 100" width="100" height="100">
  <defs>
    <linearGradient id="flameGradient" x1="0%" y1="0%" x2="100%" y2="100%">
      <stop offset="0%" stop-color="#fbbf24"/>
      <stop offset="30%" stop-color="#f97316"/>
      <stop offset="70%" stop-color="#ef4444"/>
      <stop offset="100%" stop-color="#dc2626"/>
    </linearGradient>
  </defs>
  
  <!-- Main flame shape -->
  <path d="M50 10 C35 12, 20 25, 20 45 C20 55, 25 65, 35 70 C40 75, 45 78, 50 78 C55 78, 60 75, 65 70 C75 65, 80 55, 80 45 C80 35, 75 25, 70 20 C65 15, 60 12, 55 15 C58 20, 60 25, 58 30 C55 25, 50 22, 45 25 C48 30, 52 35, 50 40 C45 35, 40 30, 35 35 C38 40, 42 45, 40 50 C35 45, 30 40, 25 45 C28 50, 32 55, 30 60 C25 55, 22 50, 20 45 Z" 
        fill="url(#flameGradient)"/>
  
  <!-- Analytics bars inside flame -->
  <g fill="white">
    <!-- Base line -->
    <rect x="25" y="68" width="50" height="3" rx="1.5"/>
    
    <!-- Bar 1 (shortest) -->
    <rect x="30" y="55" width="6" height="13" rx="3"/>
    
    <!-- Bar 2 (medium) -->
    <rect x="40" y="45" width="6" height="23" rx="3"/>
    
    <!-- Bar 3 (tallest) -->
    <rect x="50" y="35" width="6" height="33" rx="3"/>
    
    <!-- Bar 4 (medium-tall) -->
    <rect x="60" y="40" width="6" height="28" rx="3"/>
  </g>
</svg>